<svg width="20" height="20" viewBox="0 0 20 20" fill="none" xmlns="http://www.w3.org/2000/svg">
<path d="M0.75 1.5C0.334375 1.5 0 1.83437 0 2.25C0 2.66562 0.334375 3 0.75 3H2.16563C2.2875 3 2.39062 3.0875 2.4125 3.20625L4.04063 12.1531C4.23438 13.2219 5.16563 14 6.25313 14H14.25C14.6656 14 15 13.6656 15 13.25C15 12.8344 14.6656 12.5 14.25 12.5H6.25313C5.89062 12.5 5.58125 12.2406 5.51562 11.8844L5.35625 11H14.8438C15.8062 11 16.6313 10.3156 16.8094 9.36875L17.7781 4.18437C17.8938 3.56875 17.4219 3 16.7938 3H3.89687L3.88438 2.9375C3.73438 2.10625 3.00937 1.5 2.1625 1.5H0.75ZM6.5 18C7.32812 18 8 17.3281 8 16.5C8 15.6719 7.32812 15 6.5 15C5.67188 15 5 15.6719 5 16.5C5 17.3281 5.67188 18 6.5 18ZM13.5 18C14.3281 18 15 17.3281 15 16.5C15 15.6719 14.3281 15 13.5 15C12.6719 15 12 15.6719 12 16.5C12 17.3281 12.6719 18 13.5 18Z" fill="white"/>
</svg>
