<svg width="26" height="26" viewBox="0 0 26 26" fill="none" xmlns="http://www.w3.org/2000/svg">
<path d="M3.70051 0.641285C2.85448 -0.204738 1.48054 -0.204738 0.634518 0.641285C-0.211506 1.48731 -0.211506 2.86125 0.634518 3.70728L9.93401 13L0.641285 22.2995C-0.204738 23.1455 -0.204738 24.5195 0.641285 25.3655C1.48731 26.2115 2.86125 26.2115 3.70728 25.3655L13 16.066L22.2995 25.3587C23.1455 26.2047 24.5195 26.2047 25.3655 25.3587C26.2115 24.5127 26.2115 23.1387 25.3655 22.2927L16.066 13L25.3587 3.70051C26.2047 2.85448 26.2047 1.48054 25.3587 0.634518C24.5127 -0.211506 23.1387 -0.211506 22.2927 0.634518L13 9.93401L3.70051 0.641285Z" fill="white"/>
</svg>
