<svg width="28" height="28" viewBox="0 0 28 28" fill="none" xmlns="http://www.w3.org/2000/svg">
<path d="M0 20.021V1.45079C0 1.03974 0.1344 0.69493 0.4032 0.416378C0.671067 0.138793 1.00333 0 1.4 0H19.6C19.9967 0 20.3289 0.138793 20.5968 0.416378C20.8656 0.69493 21 1.03974 21 1.45079V14.5079C21 14.919 20.8656 15.2633 20.5968 15.5409C20.3289 15.8195 19.9967 15.9587 19.6 15.9587H5.6L1.19 20.5287C0.98 20.7464 0.728933 20.8005 0.4368 20.6912C0.1456 20.5829 0 20.3595 0 20.021ZM7 23.2127C6.60333 23.2127 6.2706 23.0734 6.0018 22.7949C5.73393 22.5173 5.6 22.173 5.6 21.7619V18.8603H23.8V5.80318H26.6C26.9967 5.80318 27.3289 5.94197 27.5968 6.21955C27.8656 6.49811 28 6.84291 28 7.25397V27.2749C28 27.6134 27.8544 27.8369 27.5632 27.9452C27.2711 28.0545 27.02 28.0003 26.81 27.7827L22.4 23.2127H7Z" fill="white"/>
</svg>
