<svg width="16" height="16" viewBox="0 0 16 16" fill="none" xmlns="http://www.w3.org/2000/svg">
<path d="M7.97321 3.88388C5.71471 3.87677 3.87946 5.70531 3.87234 7.96431C3.86523 10.2233 5.69337 12.059 7.95187 12.0661C10.2104 12.0732 12.0456 10.2447 12.0527 7.98566C12.0598 5.72666 10.2317 3.891 7.97321 3.88388ZM7.95187 5.3211C9.41722 5.31399 10.6087 6.49863 10.6158 7.96431C10.6229 9.43 9.43856 10.6218 7.97321 10.6289C6.50785 10.636 5.31636 9.45134 5.30925 7.98566C5.30213 6.51998 6.48651 5.32822 7.95187 5.3211ZM11.2738 3.71668C11.2738 3.19017 11.7006 2.76327 12.227 2.76327C12.7534 2.76327 13.1802 3.19017 13.1802 3.71668C13.1802 4.24319 12.7534 4.67009 12.227 4.67009C11.7006 4.67009 11.2738 4.24319 11.2738 3.71668ZM15.8868 4.68432C15.8264 3.40718 15.5347 2.2759 14.5993 1.34384C13.6675 0.411779 12.5364 0.120065 11.2596 0.0560303C9.94361 -0.0186768 5.99925 -0.0186768 4.68327 0.0560303C3.40998 0.116508 2.27895 0.408221 1.34354 1.34028C0.40813 2.27234 0.120038 3.40362 0.0560178 4.68076C-0.0186726 5.99703 -0.0186726 9.94227 0.0560178 11.2585C0.116482 12.5357 0.40813 13.667 1.34354 14.599C2.27895 15.5311 3.40642 15.8228 4.68327 15.8868C5.99925 15.9615 9.94361 15.9615 11.2596 15.8868C12.5364 15.8264 13.6675 15.5346 14.5993 14.599C15.5312 13.667 15.8228 12.5357 15.8868 11.2585C15.9615 9.94227 15.9615 6.00058 15.8868 4.68432ZM14.1867 12.6709C13.9093 13.3681 13.3723 13.9053 12.6716 14.1863C11.6224 14.6026 9.13269 14.5065 7.97321 14.5065C6.81373 14.5065 4.32049 14.599 3.27482 14.1863C2.57771 13.9089 2.04065 13.3717 1.75967 12.6709C1.34354 11.6214 1.43957 9.13117 1.43957 7.97143C1.43957 6.81169 1.3471 4.31789 1.75967 3.27199C2.03709 2.57473 2.57415 2.03755 3.27482 1.75651C4.32404 1.34028 6.81373 1.43633 7.97321 1.43633C9.13269 1.43633 11.6259 1.34384 12.6716 1.75651C13.3687 2.03399 13.9058 2.57117 14.1867 3.27199C14.6029 4.32145 14.5068 6.81169 14.5068 7.97143C14.5068 9.13117 14.6029 11.625 14.1867 12.6709Z" fill="white"/>
</svg>
