<svg width="33" height="33" viewBox="0 0 33 33" fill="none" xmlns="http://www.w3.org/2000/svg">
<path d="M1 5.24C1 4.001 1.98057 3 3.19429 3H29.5257C30.7394 3 31.72 4.001 31.72 5.24C31.72 6.479 30.7394 7.48 29.5257 7.48H3.19429C1.98057 7.48 1 6.479 1 5.24ZM1 16.44C1 15.201 1.98057 14.2 3.19429 14.2H29.5257C30.7394 14.2 31.72 15.201 31.72 16.44C31.72 17.679 30.7394 18.68 29.5257 18.68H3.19429C1.98057 18.68 1 17.679 1 16.44ZM31.72 27.64C31.72 28.879 30.7394 29.88 29.5257 29.88H3.19429C1.98057 29.88 1 28.879 1 27.64C1 26.401 1.98057 25.4 3.19429 25.4H29.5257C30.7394 25.4 31.72 26.401 31.72 27.64Z" fill="white"/>
</svg>
