<svg width="28" height="34" viewBox="0 0 28 34" fill="none" xmlns="http://www.w3.org/2000/svg">
<path d="M14 0C6.27529 0 0 6.477 0 14.45C0 22.423 6.27529 28.9 14 28.9H14.8235V34C22.8282 30.022 28 22.1 28 14.45C28 6.477 21.7247 0 14 0ZM15.6471 24.65H12.3529V21.25H15.6471V24.65ZM15.6471 18.7H12.3529C12.3529 13.175 17.2941 13.6 17.2941 10.2C17.2941 8.33 15.8118 6.8 14 6.8C12.1882 6.8 10.7059 8.33 10.7059 10.2H7.41176C7.41176 6.443 10.36 3.4 14 3.4C17.64 3.4 20.5882 6.443 20.5882 10.2C20.5882 14.45 15.6471 14.875 15.6471 18.7Z" fill="white"/>
</svg>
